PathFileType	4	(X/Y/Z)	C:\Users\Basilio\Documents\Thesis Gigler\squatting_fais\c3dfiles\075\SLS_back_pre5\markers_experimental.trc
DataRate	CameraRate	NumFrames	NumMarkers	Units	OrigDataRate	OrigDataStartFrame	OrigNumFrames
200.000000	200.000000	4	61	mm	200.000000	968	1291
Frame#	Time	FHD			LBHD			C7			T10			CLAV			LSHO			LUUPA			LMUPA			LDUPA			LLEP			LMEP			LRAD			LUL			LRFIN			RSHO			RUPA1			RMUPA			RDUPA			RLEP			RMEP			RRAD			RUL			RUFIN			LASI			RASI			USACR			LSACR			RSACR			LTHI1			LTHI2			LTHI3			LTHI4			LLFC			LMFC			LTIB1			LTIB2			LTIB3			LTIB4			LLMAL			LMMAL			LHEE			LMT1			LMT2			LMT5			RTHI			RTHI2			RTHI3			RTHI4			RLFC			RMFC			RTIB1			RTIB2			RTIB3			RTIB4			RLMAL			RMMAL			RHEE			RMT1			RMT2			RMT5			RBHD			
		X1	Y1	Z1	X2	Y2	Z2	X3	Y3	Z3	X4	Y4	Z4	X5	Y5	Z5	X6	Y6	Z6	X7	Y7	Z7	X8	Y8	Z8	X9	Y9	Z9	X10	Y10	Z10	X11	Y11	Z11	X12	Y12	Z12	X13	Y13	Z13	X14	Y14	Z14	X15	Y15	Z15	X16	Y16	Z16	X17	Y17	Z17	X18	Y18	Z18	X19	Y19	Z19	X20	Y20	Z20	X21	Y21	Z21	X22	Y22	Z22	X23	Y23	Z23	X24	Y24	Z24	X25	Y25	Z25	X26	Y26	Z26	X27	Y27	Z27	X28	Y28	Z28	X29	Y29	Z29	X30	Y30	Z30	X31	Y31	Z31	X32	Y32	Z32	X33	Y33	Z33	X34	Y34	Z34	X35	Y35	Z35	X36	Y36	Z36	X37	Y37	Z37	X38	Y38	Z38	X39	Y39	Z39	X40	Y40	Z40	X41	Y41	Z41	X42	Y42	Z42	X43	Y43	Z43	X44	Y44	Z44	X45	Y45	Z45	X46	Y46	Z46	X47	Y47	Z47	X48	Y48	Z48	X49	Y49	Z49	X50	Y50	Z50	X51	Y51	Z51	X52	Y52	Z52	X53	Y53	Z53	X54	Y54	Z54	X55	Y55	Z55	X56	Y56	Z56	X57	Y57	Z57	X58	Y58	Z58	X59	Y59	Z59	X60	Y60	Z60	X61	Y61	Z61	

969	4.84	-207.5038757324219	1723.647827148438	-846.4788818359377	-340.9378662109376	1589.028930664063	-907.8276367187502	-363.9236755371094	1478.080078125	-850.1523437500002	-362.7040710449219	1152.432250976563	-855.7727050781252	-215.6319885253907	1425.135986328125	-850.7518310546877	-256.1062622070313	1457.606201171875	-1011.310791015625	-277.8660888671876	1262.58642578125	-1136.40576171875	-234.6555786132813	1241.64990234375	-1121.843017578125	-260.1561279296876	1197.2197265625	-1156.280151367188	-228.8598785400391	1117.24609375	-1156.779541015625	-292.5529479980469	1096.87353515625	-1092.611694335938	-102.9825744628907	1085.891235351563	-937.830261230469	-62.19108200073244	1042.523681640625	-983.8591308593752	-35.47246170043946	1087.105224609375	-886.5635375976565	-256.1409606933594	1439.892700195313	-687.6148681640626	-263.2249145507813	1240.109252929688	-572.8740844726564	-223.3315582275391	1216.20361328125	-589.8101806640626	-249.8241271972657	1171.908935546875	-557.3295898437501	-225.6792144775391	1103.478637695313	-556.1400146484376	-284.8483581542969	1065.083251953125	-606.5946044921876	-83.82502746582033	1099.387451171875	-791.2587890625002	-63.74964904785158	1042.399536132813	-743.0093383789064	-9.828507423400881	1085.48486328125	-837.671813964844	-208.8587951660157	983.4993896484377	-991.748474121094	-186.1459350585938	992.7725830078127	-737.9524536132814	-353.8901672363282	1055.556030273438	-856.291442871094	-362.3389587402344	1023.801818847656	-882.429382324219	-356.9775085449219	1026.25244140625	-825.3736572265627	-261.0795288085938	745.1130371093751	-1070.776000976563	-231.5048370361329	666.4865112304689	-1078.326171875	-183.8913879394532	670.5692749023439	-1063.79833984375	-258.1053466796876	613.2037353515626	-1071.112915039063	-261.6686401367188	505.4677734375001	-1069.8857421875	-212.1374664306641	479.3959350585939	-947.6594238281252	-203.7491302490235	382.5130615234376	-1052.278564453125	-266.9637756347657	348.9954223632813	-1101.444580078125	-224.5755157470704	339.8592529296876	-1085.41162109375	-227.6519165039063	257.1002502441407	-1065.195678710938	-303.8776245117188	114.9404602050782	-1093.140380859375	-272.1007995605469	123.6190872192383	-1012.563720703125	-357.8110961914063	77.08650207519533	-1052.388549804688	-151.2456359863282	52.00635910034181	-1024.475952148438	-146.0464324951172	56.9726028442383	-1073.033569335938	-184.7432556152344	41.70421218872071	-1125.654418945313	-257.9895935058594	790.120300292969	-673.6810913085939	-225.5126342773438	734.1327514648439	-680.7572021484376	-194.8558349609376	737.8712768554689	-694.0252075195314	-261.8570556640626	656.3190307617189	-691.3491821289064	-296.9758911132813	504.949676513672	-722.3902587890626	-268.9292907714844	496.8162536621095	-848.0671386718752	-269.3831787109376	354.2256164550782	-793.8861083984377	-324.9466857910157	281.6347961425782	-735.1938476562501	-290.1049804687501	272.8065490722657	-768.6954345703127	-308.9207153320313	231.4661102294922	-805.9833984375002	-389.5952758789064	117.5261688232422	-769.5982666015627	-364.3261413574219	142.3156127929688	-850.095397949219	-448.9951782226564	100.7732238769532	-824.5650024414065	-246.0860290527344	55.49557495117189	-837.5952758789065	-246.1484527587891	54.10405349731447	-795.228698730469	-283.1991882324219	35.56385803222657	-742.0026245117189	-301.2968444824219	1632.6484375	-756.2406005859376	
970	4.845	-206.7618408203126	1723.443115234375	-847.6567382812502	-340.6586914062501	1588.97216796875	-908.9858398437502	-363.5389099121094	1477.990112304688	-851.3953247070315	-362.1001281738282	1152.233276367188	-856.9649658203127	-215.054916381836	1424.959838867188	-851.9465332031252	-255.7788085937501	1457.441162109375	-1012.733337402344	-278.3029479980469	1262.243774414063	-1137.562622070313	-235.9376831054688	1241.228759765625	-1123.248779296875	-261.0583801269532	1196.766357421875	-1157.281372070313	-229.3049774169922	1116.452026367188	-1157.45654296875	-293.4730224609376	1096.706420898438	-1093.457763671875	-104.3172607421875	1084.616821289063	-938.8917236328127	-64.00988006591798	1041.049072265625	-985.114440917969	-36.37373733520509	1085.531005859375	-887.3958740234377	-255.5557403564454	1439.681762695313	-688.9414672851564	-263.6948547363282	1239.854125976563	-574.1616821289064	-223.7224426269532	1215.742553710938	-590.9510498046876	-250.5416412353516	1171.61474609375	-558.4461059570314	-226.8386840820313	1103.096435546875	-557.1326904296876	-286.1491394042969	1064.995971679688	-606.9268188476564	-84.97602844238283	1097.561645507813	-792.1502685546877	-65.28904724121095	1040.850952148438	-744.0623779296876	-11.24254989624024	1083.430786132813	-838.8636474609377	-207.4157257080079	982.8877563476565	-992.716979980469	-185.2980346679688	992.7446899414065	-739.0200805664064	-353.0967102050782	1055.506958007813	-857.365905761719	-361.4890441894532	1023.613891601563	-883.388610839844	-356.1510620117188	1026.093872070313	-826.3948364257815	-260.9469299316407	744.8161010742189	-1071.243286132813	-231.7266998291016	666.2886962890626	-1079.161987304688	-184.1352844238282	670.0549316406251	-1064.39990234375	-258.3844604492188	612.8837280273439	-1071.4951171875	-262.1479492187501	505.0926818847657	-1069.868286132813	-212.2597656250001	479.2442016601564	-947.8508911132815	-204.2483520507813	382.2032470703126	-1052.374755859375	-267.6098937988282	348.5686035156251	-1101.478515625	-224.6428680419922	339.4299011230469	-1085.138305664063	-227.9914093017579	256.6854858398438	-1065.117797851563	-303.8626098632813	114.4085464477539	-1092.985961914063	-272.3166809082032	123.1182479858399	-1012.452697753906	-358.0307312011719	76.55982971191408	-1052.173095703125	-151.308334350586	51.83652496337892	-1024.588745117188	-146.1644439697266	56.91157913208009	-1073.029541015625	-184.854248046875	41.59076690673829	-1125.705078125	-257.1434326171876	790.2373046875002	-674.4949951171876	-224.7160797119141	734.2262573242189	-681.5739746093751	-194.100814819336	737.9174804687501	-694.9354858398439	-261.2928466796876	656.4597778320314	-692.0070800781251	-296.7911376953126	505.0415649414064	-722.9914550781251	-268.9639892578126	496.6358337402345	-848.4797363281252	-269.1610107421876	354.3242492675782	-794.2254028320315	-324.8479003906251	281.8200073242188	-735.4414672851564	-290.0122985839844	272.8978576660157	-768.8923339843752	-308.8471679687501	231.5410156250001	-806.198669433594	-389.554168701172	117.6129913330078	-769.6427001953127	-364.3808898925782	142.3275146484375	-850.1552734375002	-448.9888916015626	100.7944259643555	-824.6248779296877	-246.1357879638672	55.55509185791017	-837.615417480469	-246.1423797607422	54.10739135742189	-795.2703247070315	-283.1994934082032	35.53521347045899	-742.0507202148439	-300.7520141601563	1632.5078125	-757.7133178710939	
971	4.850000000000001	-206.098617553711	1723.194946289063	-848.894958496094	-339.8701477050782	1589.12060546875	-910.4587402343752	-363.0172424316407	1477.774780273438	-852.6106567382815	-361.4838867187501	1151.887329101563	-858.2938232421877	-215.1976318359376	1425.028930664063	-853.7812500000002	-255.4256134033204	1457.332641601563	-1014.26806640625	-278.7871704101563	1261.892578125	-1138.732055664063	-235.728988647461	1240.695434570313	-1124.11767578125	-261.6489868164063	1196.314575195313	-1158.303100585938	-231.2939147949219	1115.978149414063	-1158.703857421875	-294.9997863769532	1096.595947265625	-1094.24267578125	-105.4712142944336	1083.782958984375	-939.7453613281252	-65.37587738037111	1039.564697265625	-986.0744628906252	-37.36724090576173	1083.545776367188	-888.2739868164065	-255.147201538086	1439.445556640625	-690.1611328125001	-263.8456420898438	1239.757446289063	-575.2350463867189	-224.1817779541016	1215.413452148438	-592.0655517578126	-251.2934112548829	1171.367431640625	-559.6033935546876	-227.8978271484376	1102.728637695313	-558.2808227539064	-287.3853454589844	1064.827758789063	-608.7864379882814	-86.45203399658205	1095.841430664063	-793.3565063476565	-66.7607879638672	1039.264282226563	-745.1299438476564	-12.04998207092286	1081.547973632813	-839.7520141601565	-206.9618530273438	982.6409912109377	-993.7816162109377	-184.318344116211	992.7319946289065	-740.3107910156251	-352.3176269531251	1055.409790039063	-858.3918457031252	-360.7158203125001	1023.518371582031	-884.381774902344	-355.3983154296876	1025.97412109375	-827.3498535156252	-260.8713684082032	744.5112304687501	-1072.018310546875	-231.2631988525391	665.6477050781251	-1079.555786132813	-184.1589965820313	669.5877075195314	-1065.031860351563	-258.5417480468751	612.6129150390626	-1071.844482421875	-262.6154174804688	504.7168884277345	-1069.805908203125	-212.5157012939454	478.9494018554689	-948.2361450195315	-205.1646423339844	381.8930053710938	-1052.763793945313	-268.0545043945313	348.0345764160157	-1101.571044921875	-225.7368164062501	339.2450866699219	-1085.475463867188	-228.4939422607422	256.3363952636719	-1065.1201171875	-304.9529418945313	114.2700347900391	-1092.787719726563	-272.6400146484376	122.5551071166992	-1012.385375976563	-358.1709594726563	76.01680755615236	-1052.022338867188	-151.2518615722657	51.93559646606447	-1024.56396484375	-146.1936187744141	56.8550262451172	-1073.023071289063	-184.9622039794922	41.52251434326173	-1125.818969726563	-256.2599182128907	790.3453369140627	-675.3267822265626	-224.0214385986329	734.3358154296876	-682.3518066406251	-193.3736419677735	737.9898681640626	-695.8234863281251	-260.6753540039063	656.5809326171876	-692.8242797851564	-296.5191040039063	505.2145996093751	-723.5671386718751	-268.8438720703126	496.6950988769532	-849.1238403320315	-269.1130371093751	354.3306579589844	-794.6691894531252	-324.7969055175782	282.0433349609376	-735.7042236328126	-290.0477294921876	272.9406738281251	-769.172546386719	-308.8308105468751	231.5967254638672	-806.433532714844	-389.492401123047	117.6914215087891	-769.6897583007815	-364.4560546875001	142.3712921142578	-850.2990722656252	-448.9596557617189	100.8043060302735	-824.669860839844	-246.0644683837891	55.53699874877931	-837.5842895507815	-246.1463928222657	54.11619186401369	-795.2972412109377	-283.2167663574219	35.57016754150391	-742.0208129882814	-300.0727233886719	1632.472045898438	-759.2432861328126	
972	4.855	-205.2145385742188	1722.972290039063	-849.9895629882815	-339.1525573730469	1589.21728515625	-911.6921997070315	-362.5939941406251	1477.634155273438	-853.9075317382815	-360.8207397460938	1151.75537109375	-859.4246826171877	-214.8344879150391	1424.860229492188	-855.1250000000002	-255.0277709960938	1457.096435546875	-1015.628967285156	-279.1321411132813	1261.572875976563	-1139.7919921875	-236.2699127197266	1240.239013671875	-1125.288818359375	-262.6998596191407	1195.864379882813	-1159.583862304688	-231.7729187011719	1115.2861328125	-1159.416259765625	-296.0735168457032	1096.3583984375	-1095.08544921875	-106.7090911865235	1081.979614257813	-941.049743652344	-66.77104949951173	1038.017211914063	-986.9177246093752	-38.84667968750001	1081.93701171875	-889.5047607421877	-254.4665527343751	1439.3134765625	-691.4012451171876	-264.2181701660157	1239.559448242188	-576.3787231445314	-224.5033569335938	1215.040893554688	-593.1049194335939	-251.972885131836	1171.118774414063	-560.6558227539064	-228.9268646240235	1102.385864257813	-559.3465576171876	-288.7005920410157	1064.823974609375	-609.7904663085939	-87.52562713623048	1094.390258789063	-794.4733886718752	-68.08351898193361	1037.72412109375	-746.1229248046876	-13.55602741241455	1079.62255859375	-840.9057617187502	-206.9602813720704	982.5245361328127	-994.9822998046877	-183.3235473632813	992.8762207031252	-741.1946411132814	-351.4324035644532	1055.3740234375	-859.429870605469	-359.8768310546876	1023.300231933594	-885.256042480469	-354.3065185546876	1025.966674804688	-828.4888916015627	-260.9205932617188	744.2565917968751	-1072.733032226563	-231.3712768554688	665.2144165039064	-1080.029418945313	-184.2724151611328	669.0076904296876	-1065.670532226563	-258.8403930664063	612.3896484375001	-1072.151733398438	-262.9478454589844	504.4848022460939	-1069.833984375	-212.935287475586	478.5394897460939	-948.7613525390627	-205.2270050048829	381.4532165527344	-1052.588012695313	-268.5554809570313	347.6848144531251	-1101.688598632813	-226.1900329589844	338.8459167480469	-1085.58642578125	-228.9092407226563	256.0533142089844	-1065.10595703125	-305.1529846191407	113.8079147338867	-1092.696044921875	-272.7948608398438	122.1930465698242	-1012.301086425781	-357.8701782226563	75.24910736083986	-1051.81787109375	-151.3394622802735	51.93016815185548	-1024.548461914063	-146.2266693115235	56.56029510498048	-1072.875122070313	-185.0118408203125	41.48313140869141	-1125.911865234375	-255.4923400878907	790.4365844726565	-676.1047973632814	-223.3043212890626	734.4010009765626	-683.3907470703126	-192.7384796142579	737.8926391601564	-696.7353515625001	-260.0477294921876	656.7355346679689	-693.7147216796876	-296.3746337890626	505.3753051757814	-724.1322021484376	-268.5303955078126	496.6891479492189	-849.8054809570315	-269.1394348144532	354.3620910644532	-795.1867675781252	-324.8292541503907	282.2977600097657	-736.0411987304689	-290.0862731933594	273.0906982421876	-769.4447021484377	-308.8605957031251	231.6601867675782	-806.676696777344	-389.5072021484376	117.6997146606446	-769.8057861328127	-364.5174560546876	142.3619232177735	-850.3506469726565	-448.9362182617189	100.7981109619141	-824.7190551757815	-246.1791381835938	55.6192092895508	-837.6525878906252	-246.0910339355469	54.09551239013673	-795.3020019531252	-283.2327575683594	35.6052474975586	-742.0418701171876	-299.5661621093751	1632.51806640625	-760.1300048828126	
